<?xml version="1.0" encoding="UTF-8"?>
<svg xmlns="http://www.w3.org/2000/svg" version="1.1" width="300" height="300" viewBox="0 0 300 300"><rect x="0" y="0" width="300" height="300" fill="#ffffff"/><g transform="scale(9.091)"><g transform="translate(0,0)"><path fill-rule="evenodd" d="M9 0L9 1L8 1L8 2L9 2L9 3L8 3L8 4L9 4L9 5L8 5L8 7L9 7L9 8L6 8L6 9L5 9L5 8L0 8L0 10L1 10L1 9L3 9L3 10L2 10L2 11L0 11L0 17L1 17L1 19L0 19L0 20L1 20L1 21L0 21L0 25L1 25L1 21L3 21L3 22L2 22L2 23L3 23L3 22L4 22L4 21L5 21L5 20L6 20L6 21L7 21L7 20L8 20L8 22L9 22L9 23L8 23L8 27L9 27L9 25L11 25L11 26L10 26L10 28L8 28L8 33L9 33L9 32L13 32L13 33L15 33L15 32L13 32L13 30L12 30L12 29L14 29L14 30L15 30L15 31L16 31L16 32L17 32L17 33L18 33L18 32L19 32L19 33L20 33L20 32L23 32L23 31L24 31L24 30L25 30L25 31L27 31L27 33L28 33L28 30L29 30L29 31L30 31L30 32L29 32L29 33L30 33L30 32L31 32L31 33L32 33L32 32L31 32L31 31L32 31L32 30L31 30L31 29L33 29L33 28L32 28L32 26L33 26L33 24L32 24L32 26L31 26L31 25L30 25L30 24L31 24L31 23L32 23L32 22L33 22L33 21L32 21L32 20L31 20L31 19L32 19L32 18L33 18L33 17L32 17L32 16L31 16L31 15L32 15L32 14L33 14L33 13L31 13L31 15L30 15L30 13L29 13L29 12L28 12L28 8L27 8L27 9L26 9L26 8L22 8L22 7L23 7L23 5L24 5L24 4L25 4L25 2L24 2L24 4L23 4L23 2L21 2L21 3L19 3L19 2L18 2L18 3L15 3L15 2L16 2L16 1L17 1L17 0L16 0L16 1L14 1L14 3L12 3L12 2L9 2L9 1L13 1L13 0ZM19 0L19 1L20 1L20 0ZM21 0L21 1L22 1L22 0ZM23 0L23 1L24 1L24 0ZM9 3L9 4L11 4L11 3ZM18 3L18 4L17 4L17 5L16 5L16 4L13 4L13 5L10 5L10 6L9 6L9 7L10 7L10 6L11 6L11 7L12 7L12 6L13 6L13 8L10 8L10 9L8 9L8 10L9 10L9 12L11 12L11 13L9 13L9 14L8 14L8 15L9 15L9 14L10 14L10 15L13 15L13 16L14 16L14 15L15 15L15 18L14 18L14 17L12 17L12 16L10 16L10 17L9 17L9 18L8 18L8 16L7 16L7 15L6 15L6 16L7 16L7 17L4 17L4 18L3 18L3 16L2 16L2 20L5 20L5 18L8 18L8 20L9 20L9 22L10 22L10 20L11 20L11 21L12 21L12 22L11 22L11 25L12 25L12 26L11 26L11 27L12 27L12 28L14 28L14 27L13 27L13 25L12 25L12 24L14 24L14 26L16 26L16 25L15 25L15 24L18 24L18 25L17 25L17 28L16 28L16 27L15 27L15 28L16 28L16 29L15 29L15 30L16 30L16 31L17 31L17 32L18 32L18 31L19 31L19 32L20 32L20 30L21 30L21 29L22 29L22 31L23 31L23 29L24 29L24 27L22 27L22 26L21 26L21 25L24 25L24 24L28 24L28 23L29 23L29 24L30 24L30 22L29 22L29 21L28 21L28 20L30 20L30 21L31 21L31 20L30 20L30 19L31 19L31 16L30 16L30 15L29 15L29 13L28 13L28 12L26 12L26 11L27 11L27 10L23 10L23 9L22 9L22 8L21 8L21 9L20 9L20 6L21 6L21 7L22 7L22 5L23 5L23 4L22 4L22 3L21 3L21 4L20 4L20 5L18 5L18 4L19 4L19 3ZM21 4L21 5L22 5L22 4ZM14 5L14 8L13 8L13 10L12 10L12 9L11 9L11 10L10 10L10 11L11 11L11 10L12 10L12 11L15 11L15 12L13 12L13 13L15 13L15 12L17 12L17 13L18 13L18 14L15 14L15 15L18 15L18 16L17 16L17 17L16 17L16 18L15 18L15 19L16 19L16 20L17 20L17 21L16 21L16 22L15 22L15 20L13 20L13 21L14 21L14 22L15 22L15 23L16 23L16 22L17 22L17 23L18 23L18 24L19 24L19 22L20 22L20 21L21 21L21 20L25 20L25 19L19 19L19 18L22 18L22 17L23 17L23 18L24 18L24 17L25 17L25 18L26 18L26 19L27 19L27 20L28 20L28 19L30 19L30 17L29 17L29 16L28 16L28 17L25 17L25 16L26 16L26 15L28 15L28 13L26 13L26 14L24 14L24 13L25 13L25 11L24 11L24 13L23 13L23 14L20 14L20 12L23 12L23 11L21 11L21 10L22 10L22 9L21 9L21 10L20 10L20 9L19 9L19 8L17 8L17 6L16 6L16 5ZM15 6L15 8L14 8L14 10L16 10L16 9L17 9L17 8L16 8L16 6ZM18 6L18 7L19 7L19 6ZM24 6L24 7L25 7L25 6ZM15 8L15 9L16 9L16 8ZM29 8L29 9L30 9L30 8ZM31 8L31 10L33 10L33 9L32 9L32 8ZM6 9L6 10L4 10L4 11L3 11L3 14L2 14L2 13L1 13L1 15L4 15L4 16L5 16L5 15L4 15L4 14L5 14L5 11L6 11L6 12L7 12L7 13L6 13L6 14L7 14L7 13L8 13L8 12L7 12L7 11L6 11L6 10L7 10L7 9ZM17 10L17 12L18 12L18 13L19 13L19 12L20 12L20 10ZM30 11L30 12L31 12L31 11ZM11 13L11 14L12 14L12 13ZM18 14L18 15L19 15L19 16L18 16L18 17L17 17L17 20L19 20L19 21L17 21L17 22L19 22L19 21L20 21L20 20L19 20L19 19L18 19L18 17L22 17L22 16L21 16L21 15L20 15L20 14ZM23 14L23 15L24 15L24 14ZM23 16L23 17L24 17L24 16ZM11 17L11 18L12 18L12 17ZM28 17L28 18L29 18L29 17ZM9 18L9 20L10 20L10 18ZM6 19L6 20L7 20L7 19ZM22 21L22 22L21 22L21 24L20 24L20 25L18 25L18 26L20 26L20 27L19 27L19 28L17 28L17 29L16 29L16 30L17 30L17 31L18 31L18 30L20 30L20 29L21 29L21 28L22 28L22 29L23 29L23 28L22 28L22 27L21 27L21 26L20 26L20 25L21 25L21 24L22 24L22 22L24 22L24 23L23 23L23 24L24 24L24 23L25 23L25 22L28 22L28 21ZM6 22L6 23L7 23L7 22ZM12 22L12 23L13 23L13 22ZM4 23L4 25L5 25L5 23ZM2 24L2 25L3 25L3 24ZM6 24L6 25L7 25L7 24ZM25 25L25 28L28 28L28 25ZM29 25L29 26L30 26L30 25ZM26 26L26 27L27 27L27 26ZM20 27L20 28L19 28L19 29L20 29L20 28L21 28L21 27ZM29 27L29 28L30 28L30 29L29 29L29 30L30 30L30 29L31 29L31 28L30 28L30 27ZM10 28L10 29L9 29L9 31L12 31L12 30L10 30L10 29L11 29L11 28ZM25 29L25 30L27 30L27 29ZM24 32L24 33L25 33L25 32ZM0 0L0 7L7 7L7 0ZM1 1L1 6L6 6L6 1ZM2 2L2 5L5 5L5 2ZM26 0L26 7L33 7L33 0ZM27 1L27 6L32 6L32 1ZM28 2L28 5L31 5L31 2ZM0 26L0 33L7 33L7 26ZM1 27L1 32L6 32L6 27ZM2 28L2 31L5 31L5 28Z" fill="#000000"/></g></g></svg>
