<?xml version="1.0" encoding="UTF-8"?>
<svg xmlns="http://www.w3.org/2000/svg" version="1.1" width="300" height="300" viewBox="0 0 300 300"><rect x="0" y="0" width="300" height="300" fill="#ffffff"/><g transform="scale(8.108)"><g transform="translate(0,0)"><path fill-rule="evenodd" d="M10 0L10 2L11 2L11 0ZM12 0L12 1L13 1L13 2L12 2L12 4L13 4L13 3L14 3L14 4L15 4L15 5L17 5L17 4L18 4L18 5L21 5L21 4L20 4L20 3L22 3L22 4L23 4L23 5L22 5L22 7L21 7L21 6L20 6L20 7L21 7L21 8L22 8L22 9L20 9L20 8L17 8L17 6L16 6L16 9L12 9L12 7L13 7L13 5L11 5L11 6L10 6L10 4L11 4L11 3L8 3L8 4L9 4L9 5L8 5L8 7L9 7L9 8L6 8L6 9L7 9L7 10L6 10L6 11L5 11L5 12L4 12L4 11L3 11L3 10L2 10L2 9L5 9L5 8L0 8L0 10L2 10L2 11L3 11L3 12L4 12L4 14L3 14L3 13L2 13L2 14L3 14L3 16L2 16L2 17L0 17L0 19L1 19L1 20L2 20L2 24L1 24L1 25L0 25L0 29L1 29L1 26L5 26L5 27L4 27L4 28L5 28L5 29L7 29L7 28L8 28L8 31L9 31L9 30L11 30L11 31L10 31L10 33L9 33L9 32L8 32L8 37L10 37L10 35L11 35L11 33L12 33L12 34L13 34L13 35L12 35L12 37L13 37L13 36L14 36L14 37L16 37L16 35L17 35L17 33L18 33L18 32L17 32L17 33L16 33L16 34L15 34L15 33L12 33L12 31L13 31L13 30L11 30L11 25L12 25L12 26L13 26L13 27L12 27L12 29L13 29L13 28L14 28L14 29L15 29L15 28L17 28L17 29L16 29L16 30L15 30L15 31L14 31L14 32L16 32L16 31L17 31L17 29L18 29L18 30L20 30L20 32L22 32L22 33L19 33L19 34L20 34L20 36L22 36L22 37L23 37L23 36L22 36L22 35L21 35L21 34L24 34L24 35L25 35L25 34L26 34L26 36L25 36L25 37L26 37L26 36L29 36L29 35L28 35L28 34L26 34L26 32L27 32L27 33L29 33L29 34L33 34L33 33L34 33L34 34L35 34L35 35L36 35L36 36L34 36L34 35L32 35L32 36L34 36L34 37L37 37L37 30L35 30L35 31L36 31L36 33L35 33L35 32L34 32L34 29L35 29L35 28L34 28L34 27L33 27L33 28L32 28L32 27L31 27L31 26L30 26L30 25L33 25L33 26L34 26L34 25L35 25L35 27L36 27L36 28L37 28L37 26L36 26L36 25L37 25L37 22L36 22L36 21L37 21L37 18L36 18L36 17L37 17L37 14L36 14L36 13L35 13L35 12L34 12L34 11L35 11L35 9L36 9L36 8L35 8L35 9L34 9L34 8L33 8L33 9L34 9L34 11L32 11L32 12L31 12L31 10L30 10L30 8L29 8L29 4L28 4L28 3L27 3L27 4L26 4L26 3L24 3L24 4L23 4L23 3L22 3L22 2L23 2L23 1L27 1L27 2L29 2L29 1L27 1L27 0L23 0L23 1L22 1L22 2L21 2L21 0L17 0L17 1L16 1L16 0ZM8 1L8 2L9 2L9 1ZM17 1L17 2L16 2L16 4L17 4L17 3L18 3L18 4L19 4L19 2L20 2L20 1ZM14 2L14 3L15 3L15 2ZM24 4L24 5L23 5L23 7L22 7L22 8L23 8L23 9L22 9L22 10L21 10L21 11L22 11L22 10L23 10L23 13L24 13L24 14L21 14L21 13L22 13L22 12L20 12L20 14L19 14L19 13L17 13L17 12L19 12L19 11L20 11L20 10L18 10L18 11L16 11L16 13L17 13L17 14L15 14L15 13L14 13L14 12L15 12L15 11L14 11L14 12L13 12L13 13L12 13L12 11L13 11L13 10L12 10L12 9L11 9L11 8L10 8L10 9L11 9L11 10L10 10L10 11L8 11L8 10L7 10L7 11L6 11L6 12L5 12L5 14L7 14L7 15L6 15L6 16L9 16L9 17L10 17L10 14L13 14L13 15L12 15L12 17L11 17L11 22L13 22L13 23L12 23L12 25L16 25L16 27L17 27L17 28L18 28L18 29L19 29L19 28L18 28L18 27L21 27L21 26L23 26L23 29L22 29L22 28L20 28L20 30L21 30L21 31L22 31L22 32L24 32L24 33L25 33L25 32L26 32L26 31L28 31L28 30L27 30L27 29L28 29L28 28L27 28L27 27L24 27L24 26L26 26L26 25L27 25L27 26L28 26L28 25L30 25L30 24L33 24L33 25L34 25L34 24L36 24L36 23L35 23L35 21L34 21L34 20L36 20L36 19L35 19L35 17L36 17L36 14L35 14L35 15L34 15L34 13L30 13L30 10L29 10L29 8L27 8L27 7L28 7L28 6L27 6L27 7L26 7L26 6L25 6L25 8L23 8L23 7L24 7L24 5L26 5L26 4ZM27 4L27 5L28 5L28 4ZM9 6L9 7L10 7L10 6ZM11 6L11 7L12 7L12 6ZM14 6L14 8L15 8L15 6ZM18 6L18 7L19 7L19 6ZM25 8L25 9L23 9L23 10L25 10L25 9L27 9L27 8ZM31 8L31 9L32 9L32 8ZM16 9L16 10L17 10L17 9ZM27 10L27 11L26 11L26 12L25 12L25 11L24 11L24 13L25 13L25 14L24 14L24 15L23 15L23 16L22 16L22 15L21 15L21 16L20 16L20 17L19 17L19 16L17 16L17 15L19 15L19 14L17 14L17 15L16 15L16 17L12 17L12 18L13 18L13 19L12 19L12 21L13 21L13 20L14 20L14 21L15 21L15 22L17 22L17 23L16 23L16 24L17 24L17 25L18 25L18 26L21 26L21 25L18 25L18 24L17 24L17 23L18 23L18 22L20 22L20 23L21 23L21 24L23 24L23 23L21 23L21 20L22 20L22 21L23 21L23 22L25 22L25 21L26 21L26 22L27 22L27 25L28 25L28 23L31 23L31 22L30 22L30 21L33 21L33 22L34 22L34 21L33 21L33 20L34 20L34 18L32 18L32 19L33 19L33 20L31 20L31 19L30 19L30 18L29 18L29 17L28 17L28 16L29 16L29 15L28 15L28 14L30 14L30 17L31 17L31 16L32 16L32 17L33 17L33 16L34 16L34 17L35 17L35 16L34 16L34 15L32 15L32 14L30 14L30 13L28 13L28 12L27 12L27 11L29 11L29 10ZM36 10L36 11L37 11L37 10ZM6 12L6 13L7 13L7 14L8 14L8 13L7 13L7 12ZM10 12L10 13L9 13L9 14L10 14L10 13L11 13L11 12ZM26 12L26 14L25 14L25 15L24 15L24 16L23 16L23 17L22 17L22 16L21 16L21 18L19 18L19 17L16 17L16 18L19 18L19 21L20 21L20 20L21 20L21 19L22 19L22 18L23 18L23 20L26 20L26 21L27 21L27 22L28 22L28 21L30 21L30 20L29 20L29 19L27 19L27 18L28 18L28 17L27 17L27 16L28 16L28 15L27 15L27 16L26 16L26 14L28 14L28 13L27 13L27 12ZM0 14L0 16L1 16L1 14ZM4 15L4 16L3 16L3 17L2 17L2 18L3 18L3 19L2 19L2 20L4 20L4 21L3 21L3 22L4 22L4 21L6 21L6 22L7 22L7 23L5 23L5 24L7 24L7 25L6 25L6 26L7 26L7 27L6 27L6 28L7 28L7 27L10 27L10 25L11 25L11 24L10 24L10 25L9 25L9 23L10 23L10 18L9 18L9 23L8 23L8 20L7 20L7 19L6 19L6 18L8 18L8 17L6 17L6 18L5 18L5 19L4 19L4 17L5 17L5 15ZM14 15L14 16L15 16L15 15ZM24 16L24 17L23 17L23 18L24 18L24 17L26 17L26 18L25 18L25 19L26 19L26 20L27 20L27 21L28 21L28 20L27 20L27 19L26 19L26 18L27 18L27 17L26 17L26 16ZM5 19L5 20L6 20L6 21L7 21L7 20L6 20L6 19ZM14 19L14 20L15 20L15 19ZM16 19L16 21L17 21L17 20L18 20L18 19ZM0 21L0 22L1 22L1 21ZM3 23L3 24L4 24L4 23ZM14 23L14 24L15 24L15 23ZM33 23L33 24L34 24L34 23ZM24 24L24 25L23 25L23 26L24 26L24 25L26 25L26 24ZM7 25L7 26L9 26L9 25ZM29 26L29 27L30 27L30 28L31 28L31 27L30 27L30 26ZM14 27L14 28L15 28L15 27ZM2 28L2 29L3 29L3 28ZM25 28L25 29L23 29L23 30L22 30L22 29L21 29L21 30L22 30L22 31L23 31L23 30L24 30L24 32L25 32L25 29L27 29L27 28ZM33 28L33 29L34 29L34 28ZM29 29L29 32L32 32L32 29ZM30 30L30 31L31 31L31 30ZM14 35L14 36L15 36L15 35ZM18 35L18 36L17 36L17 37L18 37L18 36L19 36L19 35ZM30 35L30 36L31 36L31 35ZM0 0L0 7L7 7L7 0ZM1 1L1 6L6 6L6 1ZM2 2L2 5L5 5L5 2ZM30 0L30 7L37 7L37 0ZM31 1L31 6L36 6L36 1ZM32 2L32 5L35 5L35 2ZM0 30L0 37L7 37L7 30ZM1 31L1 36L6 36L6 31ZM2 32L2 35L5 35L5 32Z" fill="#000000"/></g></g></svg>
